<svg width="24" height="24" viewBox="0 0 24 24" fill="none" xmlns="http://www.w3.org/2000/svg">
<path fill-rule="evenodd" clip-rule="evenodd" d="M4 4.5C4 4.10218 4.15804 3.72064 4.43934 3.43934C4.72064 3.15804 5.10218 3 5.5 3H20.5C20.8978 3 21.2794 3.15804 21.5607 3.43934C21.842 3.72064 22 4.10218 22 4.5V6.586C21.9999 7.11639 21.7891 7.62501 21.414 8L16 13.414V20.838C16 21.0255 15.9521 21.2099 15.8608 21.3737C15.7695 21.5375 15.6379 21.6753 15.4783 21.7739C15.3188 21.8724 15.1368 21.9286 14.9494 21.9371C14.7621 21.9455 14.5757 21.9059 14.408 21.822L10.691 19.964C10.4834 19.8602 10.3087 19.7006 10.1867 19.5031C10.0647 19.3057 10 19.0781 10 18.846V13.414L4.586 8C4.2109 7.62501 4.00011 7.11639 4 6.586V4.5ZM6 5V6.586L11.56 12.146C11.6994 12.2853 11.8101 12.4507 11.8856 12.6327C11.9611 12.8148 12 13.0099 12 13.207V18.382L14 19.382V13.207C14 12.809 14.158 12.427 14.44 12.147L20 6.585V5H6Z" fill="white"/>
</svg>
