<svg width="125" height="78" viewBox="0 0 125 78" fill="none" xmlns="http://www.w3.org/2000/svg">
<g filter="url(#filter0_dd_3833_18781)">
<mask id="mask0_3833_18781" style="mask-type:luminance" maskUnits="userSpaceOnUse" x="14" y="6" width="62" height="62">
<path d="M14.0605 6.30103H75.5005V67.741H14.0605V6.30103Z" fill="white"/>
</mask>
<g mask="url(#mask0_3833_18781)">
<mask id="mask1_3833_18781" style="mask-type:luminance" maskUnits="userSpaceOnUse" x="-7" y="-31" width="138" height="137">
<path d="M-6.40625 39.3899L63.666 -30.6824L130.234 35.8854L60.1615 105.958L-6.40625 39.3899Z" fill="white"/>
</mask>
<g mask="url(#mask1_3833_18781)">
<mask id="mask2_3833_18781" style="mask-type:luminance" maskUnits="userSpaceOnUse" x="-7" y="-31" width="138" height="137">
<path d="M-6.40625 39.3899L63.666 -30.6824L130.234 35.8854L60.1615 105.958L-6.40625 39.3899Z" fill="white"/>
</mask>
<g mask="url(#mask2_3833_18781)">
<path d="M63.6526 46.3809C63.6526 48.959 62.6487 51.3822 60.8268 53.2041C59.0049 55.0235 56.5842 56.0274 54.0062 56.0274H26.8036C26.3674 56.0274 26.0707 55.8235 25.9004 55.6532C25.73 55.4828 25.5262 55.1887 25.5262 54.7499V27.5474C25.5262 24.8867 26.6074 22.4764 28.3545 20.7293C30.1016 18.9848 32.5145 17.9009 35.1726 17.9009H47.2139L58.5584 6.5564H35.1726C29.5649 6.5564 24.2952 8.73962 20.3287 12.7035C16.3649 16.6699 14.1816 21.9396 14.1816 27.5474V54.7499C14.1816 58.1228 15.4952 61.2919 17.8797 63.6764C20.2616 66.0609 23.4333 67.3719 26.8062 67.3745H54.0062C59.6139 67.3719 64.8862 65.1887 68.85 61.2248C72.8139 57.2609 74.9971 51.9887 74.9997 46.3835L74.9971 22.9951L63.6526 34.3396V46.3809Z" fill="#E4EDFF"/>
</g>
</g>
</g>
</g>
<g filter="url(#filter1_dd_3833_18781)">
<mask id="mask3_3833_18781" style="mask-type:luminance" maskUnits="userSpaceOnUse" x="49" y="6" width="62" height="62">
<path d="M49.5 6.30103H110.94V67.741H49.5V6.30103Z" fill="white"/>
</mask>
<g mask="url(#mask3_3833_18781)">
<mask id="mask4_3833_18781" style="mask-type:luminance" maskUnits="userSpaceOnUse" x="-6" y="-33" width="138" height="138">
<path d="M-5.32031 38.0686L64.752 -32.0037L131.32 34.5641L61.2474 104.636L-5.32031 38.0686Z" fill="white"/>
</mask>
<g mask="url(#mask4_3833_18781)">
<mask id="mask5_3833_18781" style="mask-type:luminance" maskUnits="userSpaceOnUse" x="-6" y="-33" width="138" height="138">
<path d="M-5.32031 38.0686L64.752 -32.0037L131.32 34.5641L61.2474 104.636L-5.32031 38.0686Z" fill="white"/>
</mask>
<g mask="url(#mask5_3833_18781)">
<path d="M107.12 10.3651C104.736 7.98054 101.567 6.66957 98.1939 6.66699H70.9913C65.3862 6.66957 60.1139 8.8528 56.15 12.8167C52.1862 16.7805 50.0029 22.0528 50.0029 27.658V51.0463L61.3474 39.7018V27.658C61.3474 24.9999 62.4287 22.5896 64.1758 20.8425C65.9229 19.0954 68.3333 18.0141 70.9939 18.0141H98.1965C98.6326 18.0141 98.9294 18.218 99.0997 18.3883C99.27 18.5586 99.4739 18.8528 99.4739 19.2915V46.4941C99.4739 49.0696 98.47 51.4928 96.6481 53.3147C94.8262 55.1367 92.4055 56.1405 89.8274 56.1405H77.7862L66.4416 67.4851H89.8274C95.4352 67.4851 100.705 65.3018 104.671 61.338C108.635 57.3715 110.818 52.1018 110.818 46.4941V19.2915C110.818 15.9212 109.505 12.7496 107.12 10.3651Z" fill="#0066AE"/>
</g>
</g>
</g>
</g>
<defs>
<filter id="filter0_dd_3833_18781" x="6.18164" y="0.556396" width="76.8184" height="76.8181" filterUnits="userSpaceOnUse" color-interpolation-filters="sRGB">
<feFlood flood-opacity="0" result="BackgroundImageFix"/>
<feColorMatrix in="SourceAlpha" type="matrix" values="0 0 0 0 0 0 0 0 0 0 0 0 0 0 0 0 0 0 127 0" result="hardAlpha"/>
<feMorphology radius="2" operator="dilate" in="SourceAlpha" result="effect1_dropShadow_3833_18781"/>
<feOffset dy="2"/>
<feGaussianBlur stdDeviation="3"/>
<feColorMatrix type="matrix" values="0 0 0 0 0 0 0 0 0 0 0 0 0 0 0 0 0 0 0.15 0"/>
<feBlend mode="normal" in2="BackgroundImageFix" result="effect1_dropShadow_3833_18781"/>
<feColorMatrix in="SourceAlpha" type="matrix" values="0 0 0 0 0 0 0 0 0 0 0 0 0 0 0 0 0 0 127 0" result="hardAlpha"/>
<feOffset dy="1"/>
<feGaussianBlur stdDeviation="1"/>
<feColorMatrix type="matrix" values="0 0 0 0 0 0 0 0 0 0 0 0 0 0 0 0 0 0 0.3 0"/>
<feBlend mode="normal" in2="effect1_dropShadow_3833_18781" result="effect2_dropShadow_3833_18781"/>
<feBlend mode="normal" in="SourceGraphic" in2="effect2_dropShadow_3833_18781" result="shape"/>
</filter>
<filter id="filter1_dd_3833_18781" x="42.0029" y="0.666992" width="76.8154" height="76.8181" filterUnits="userSpaceOnUse" color-interpolation-filters="sRGB">
<feFlood flood-opacity="0" result="BackgroundImageFix"/>
<feColorMatrix in="SourceAlpha" type="matrix" values="0 0 0 0 0 0 0 0 0 0 0 0 0 0 0 0 0 0 127 0" result="hardAlpha"/>
<feMorphology radius="2" operator="dilate" in="SourceAlpha" result="effect1_dropShadow_3833_18781"/>
<feOffset dy="2"/>
<feGaussianBlur stdDeviation="3"/>
<feColorMatrix type="matrix" values="0 0 0 0 0 0 0 0 0 0 0 0 0 0 0 0 0 0 0.15 0"/>
<feBlend mode="normal" in2="BackgroundImageFix" result="effect1_dropShadow_3833_18781"/>
<feColorMatrix in="SourceAlpha" type="matrix" values="0 0 0 0 0 0 0 0 0 0 0 0 0 0 0 0 0 0 127 0" result="hardAlpha"/>
<feOffset dy="1"/>
<feGaussianBlur stdDeviation="1"/>
<feColorMatrix type="matrix" values="0 0 0 0 0 0 0 0 0 0 0 0 0 0 0 0 0 0 0.3 0"/>
<feBlend mode="normal" in2="effect1_dropShadow_3833_18781" result="effect2_dropShadow_3833_18781"/>
<feBlend mode="normal" in="SourceGraphic" in2="effect2_dropShadow_3833_18781" result="shape"/>
</filter>
</defs>
</svg>